<svg width="91" height="90" viewBox="0 0 91 90" fill="none" xmlns="http://www.w3.org/2000/svg">
<path d="M81.6406 21.5859L47.6797 2.03906C47.1172 1.6875 46.3438 1.54688 45.5 1.54688C44.6562 1.54688 43.8828 1.75781 43.3203 2.03906L9.57031 21.6562C8.375 22.3594 7.53125 24.1172 7.53125 25.4531V64.6172C7.53125 65.3906 7.67187 66.3047 8.23438 67.0781L83.3281 23.4844C82.9062 22.6406 82.2734 22.0078 81.6406 21.5859Z" fill="#9B4F96"/>
<path d="M8.02344 67.0078C8.375 67.5703 8.86719 68.0625 9.35938 68.3438L43.25 87.9609C43.8125 88.3125 44.5859 88.4531 45.4297 88.4531C46.2734 88.4531 47.0469 88.2422 47.6094 87.9609L81.3594 68.3438C82.5547 67.6406 83.3984 65.8828 83.3984 64.5469V25.3828C83.3984 24.75 83.3281 24.0469 82.9766 23.4141L8.02344 67.0078Z" fill="#68217A"/>
<path d="M60.4766 53.5078C57.5234 58.7109 51.8984 62.2266 45.5 62.2266C36.0078 62.2266 28.2734 54.4922 28.2734 45C28.2734 35.5078 36.0078 27.7734 45.5 27.7734C51.8984 27.7734 57.5234 31.2891 60.4766 36.5625L69.6172 31.2891C64.8359 22.9219 55.8359 17.2266 45.5 17.2266C30.1719 17.2266 17.7266 29.6719 17.7266 45C17.7266 60.3281 30.1719 72.7734 45.5 72.7734C55.7656 72.7734 64.7656 67.1484 69.5469 58.8516L60.4766 53.5078ZM68.7031 46.5469L69.3359 43.5234H66.3828V40.2188H69.9688L70.8125 35.8594H74.2578L73.4141 40.1484H76.0859L76.9297 35.8594H80.3047L79.4609 40.1484H81.1484V43.4531H78.8281L78.1953 46.4766H81.1484V49.7813H77.5625L76.7188 54H73.2734L74.1172 49.7813H71.4453L70.6016 54H67.2266L68.0703 49.7813H66.3828V46.4766H68.7031V46.5469ZM72.0781 46.5469H74.75L75.3828 43.5234H72.7109L72.0781 46.5469Z" fill="white"/>
</svg>
