<svg width="63" height="94" viewBox="0 0 63 94" fill="none" xmlns="http://www.w3.org/2000/svg">
<g clip-path="url(#clip0_35_45)">
<path d="M16.345 94C24.901 94 31.845 86.9813 31.845 78.3333V62.6666H16.345C7.78897 62.6666 0.844971 69.6853 0.844971 78.3333C0.844971 86.9813 7.78897 94 16.345 94Z" fill="#0ACF83"/>
<path d="M0.844971 47C0.844971 38.352 7.78897 31.3334 16.345 31.3334H31.845V62.6667H16.345C7.78897 62.6667 0.844971 55.648 0.844971 47Z" fill="#A259FF"/>
<path d="M0.844971 15.6667C0.844971 7.01867 7.78897 0 16.345 0H31.845V31.3333H16.345C7.78897 31.3333 0.844971 24.3147 0.844971 15.6667Z" fill="#F24E1E"/>
<path d="M31.845 0H47.345C55.901 0 62.845 7.01867 62.845 15.6667C62.845 24.3147 55.901 31.3333 47.345 31.3333H31.845V0Z" fill="#FF7262"/>
<path d="M62.845 47C62.845 55.648 55.901 62.6667 47.345 62.6667C38.789 62.6667 31.845 55.648 31.845 47C31.845 38.352 38.789 31.3334 47.345 31.3334C55.901 31.3334 62.845 38.352 62.845 47Z" fill="#1ABCFE"/>
</g>
<defs>
<clipPath id="clip0_35_45">
<rect width="62" height="94" fill="white" transform="translate(0.844971)"/>
</clipPath>
</defs>
</svg>
