<svg width="91" height="90" viewBox="0 0 91 90" fill="none" xmlns="http://www.w3.org/2000/svg">
<g clip-path="url(#clip0_35_119)">
<path d="M69.4062 0H21.5938C9.94399 0 0.5 9.44399 0.5 21.0938V68.9062C0.5 80.556 9.94399 90 21.5938 90H69.4062C81.056 90 90.5 80.556 90.5 68.9062V21.0938C90.5 9.44399 81.056 0 69.4062 0Z" fill="#E14E1D"/>
<path d="M17.375 13.3594L20.402 47.3179H59.3234L58.0174 61.8831L45.4856 65.2714L32.9773 61.888L32.141 52.5357H20.8695L22.4814 70.5642L45.4831 76.9528L68.514 70.5642L71.6018 36.0896H30.6725L29.6449 24.59H72.6192L73.625 13.3594H17.375Z" fill="white"/>
<path d="M45.5 13.3594H17.375L20.402 47.3179H45.5V36.0896H30.6725L29.6449 24.59H45.5V13.3594ZM45.5 65.2665L45.4856 65.2714L32.9773 61.888L32.141 52.5357H20.8695L22.4814 70.5642L45.4831 76.9528L45.5004 76.9479L45.5 65.2665Z" fill="#EBEBEB"/>
</g>
<defs>
<clipPath id="clip0_35_119">
<rect width="90" height="90" fill="white" transform="translate(0.5)"/>
</clipPath>
</defs>
</svg>
