<svg width="91" height="90" viewBox="0 0 91 90" fill="none" xmlns="http://www.w3.org/2000/svg">
<g clip-path="url(#clip0_35_83)">
<path d="M25.595 24.5391L19.759 18.7031V60.6797L19.8293 62.6484C19.8293 63.5625 19.97 64.6172 20.3215 65.6719L66.4465 81.9141L77.9075 76.8516L25.595 24.5391Z" fill="#00C4B3"/>
<path d="M77.9075 76.8516L66.4465 81.9141L20.4622 65.6719C21.3762 69.0469 23.2747 72.7734 25.384 74.9531L40.3606 89.8594L73.8293 89.9297L77.9075 76.8516Z" fill="#22D3C5"/>
<path d="M2.04034 45.7734C0.563777 47.3203 1.33721 50.625 3.65753 53.0859L13.9935 63.4922L20.4622 65.8125C20.2513 64.7578 19.97 63.7031 19.97 62.7891L19.8997 60.8203L19.7591 18.7734M77.9075 76.8516L82.97 65.3203L66.7982 19.1953C65.7435 18.9844 64.6888 18.7734 63.7747 18.7031L61.7357 18.6328L19.8294 18.7031" fill="#0075C9"/>
<path d="M77.9075 76.8516L90.3528 72.7734V38.5312L76.009 24.1172C73.8997 22.0078 70.1731 20.0391 66.7278 19.1953L82.97 65.3203" fill="#00A8E1"/>
<path d="M64.4778 12.7969L54.0715 2.46093C51.6809 0.0703084 48.4465 -0.632816 46.759 0.843746L19.759 18.7031H61.595L63.634 18.7734C64.5481 18.7734 65.6028 18.9141 66.6575 19.2656L64.4778 12.7969Z" fill="#00C4B3"/>
</g>
<defs>
<clipPath id="clip0_35_83">
<rect width="90" height="90" fill="white" transform="translate(0.844971)"/>
</clipPath>
</defs>
</svg>
