<svg width="91" height="90" viewBox="0 0 91 90" fill="none" xmlns="http://www.w3.org/2000/svg">
<g clip-path="url(#clip0_35_77)">
<path d="M16.7827 1.125H74.9072C83.7202 1.125 90.845 8.24977 90.845 17.0627V72.9373C90.845 81.7502 83.7202 88.875 74.9072 88.875H16.7827C7.96974 88.875 0.844971 81.7502 0.844971 72.9373V17.0627C0.844971 8.24977 7.96974 1.125 16.7827 1.125Z" fill="#001E36"/>
<path d="M33.0952 23.4373C31.9702 23.4373 30.8452 23.4373 29.6829 23.4752C28.52 23.5125 27.4322 23.5125 26.4197 23.5505C25.4072 23.5877 24.47 23.5877 23.57 23.625C22.7072 23.6623 22.1075 23.6623 21.4697 23.6623C21.2075 23.6623 21.095 23.812 21.095 24.075V62.6625C21.095 63 21.2447 63.1505 21.545 63.1505H28.8202C29.0825 63.1125 29.2702 62.8875 29.2322 62.6252V50.5877C29.9445 50.5877 30.4697 50.5877 30.8452 50.625C31.22 50.6623 31.8197 50.6623 32.7197 50.6623C35.7952 50.6623 38.6077 50.3248 41.1572 49.3875C43.595 48.4875 45.6952 46.9125 47.195 44.8123C48.6947 42.7127 49.445 40.05 49.445 36.8248C49.445 35.1373 49.1454 33.525 48.5829 31.95C47.9873 30.3452 47.0535 28.8872 45.845 27.675C44.4189 26.2896 42.7023 25.239 40.8197 24.5995C38.7195 23.812 36.17 23.4373 33.0952 23.4373ZM33.9319 30.8236C35.2679 30.8489 36.5686 31.0823 37.7822 31.5745C38.87 31.9873 39.77 32.7375 40.4077 33.712C41.0066 34.7203 41.3058 35.8783 41.2704 37.0505C41.2704 38.7 40.895 39.9755 40.1075 40.9127C39.282 41.85 38.2322 42.563 37.0327 42.9005C35.6447 43.3505 34.1822 43.5748 32.7197 43.5748H30.732C30.282 43.5748 29.7954 43.5375 29.2702 43.5002V30.9002C29.5325 30.8623 30.0577 30.825 30.8079 30.863C31.5202 30.825 32.3822 30.825 33.3575 30.825C33.5494 30.8201 33.7414 30.8194 33.9319 30.8236ZM65.3827 32.7382C62.72 32.7382 60.5072 33.1502 58.7452 34.0502C57.1329 34.8005 55.745 36 54.8077 37.4998C53.9829 38.8877 53.5322 40.4248 53.5322 42.0377C53.5001 43.3643 53.7965 44.6783 54.395 45.8627C55.0965 47.1238 56.0702 48.2126 57.2454 49.05C58.8952 50.1781 60.6853 51.0858 62.5702 51.75C64.4075 52.4623 65.645 53.0248 66.2454 53.512C66.8452 54 67.1454 54.4873 67.1454 55.0125C67.1454 55.6875 66.7327 56.3252 66.1329 56.5875C65.4579 56.925 64.4454 57.1127 63.0202 57.1127C61.5204 57.1127 60.02 56.925 58.5947 56.5502C56.9584 56.1844 55.3894 55.5644 53.945 54.713C53.8325 54.6377 53.72 54.6005 53.6075 54.6757C53.495 54.7502 53.4577 54.9 53.4577 55.0125V61.5375C53.4204 61.8377 53.6075 62.1 53.8704 62.2498C55.0865 62.8179 56.3728 63.2216 57.6954 63.45C59.3829 63.7875 61.0697 63.9373 62.7945 63.9373C65.4945 63.9373 67.7452 63.5252 69.5825 62.7377C71.27 62.0627 72.7325 60.9005 73.7822 59.4C74.765 57.9247 75.2751 56.1851 75.2447 54.4127C75.2814 53.0738 74.9852 51.7467 74.3827 50.5505C73.6697 49.275 72.6572 48.2252 71.4197 47.4377C69.6093 46.301 67.6709 45.382 65.645 44.6998C64.7401 44.3255 63.8517 43.9126 62.9822 43.4623C62.495 43.2 62.045 42.8625 61.7075 42.4498C61.4825 42.1495 61.3327 41.8127 61.3327 41.4752C61.3327 41.1377 61.4452 40.763 61.6322 40.4627C61.8952 40.088 62.3072 39.825 62.7945 39.7125C63.5075 39.5255 64.295 39.4123 65.0445 39.4495C66.4697 39.4495 67.857 39.6373 69.245 39.9375C70.5204 40.1998 71.72 40.6125 72.845 41.213C72.9947 41.2875 73.1825 41.2875 73.52 41.213C73.5787 41.1697 73.6264 41.1131 73.659 41.0478C73.6917 40.9825 73.7083 40.9105 73.7077 40.8375V34.7252C73.7077 34.5748 73.6697 34.425 73.6325 34.2752C73.5572 34.1255 73.4075 33.975 73.2577 33.9377C72.2235 33.5147 71.1398 33.2248 70.0325 33.075C68.4927 32.8507 66.9387 32.7387 65.3827 32.7382Z" fill="#31A8FF"/>
</g>
<defs>
<clipPath id="clip0_35_77">
<rect width="90" height="90" fill="white" transform="translate(0.844971)"/>
</clipPath>
</defs>
</svg>
