<svg width="91" height="90" viewBox="0 0 91 90" fill="none" xmlns="http://www.w3.org/2000/svg">
<path d="M6.125 5.625H84.875V84.375H6.125V5.625Z" fill="#F5DE19"/>
<path d="M59.0253 67.1485C59.6963 68.5114 60.7388 69.657 62.0325 70.4532C63.3263 71.2494 64.8188 71.6637 66.3378 71.6485C69.4035 71.6485 71.3638 70.1157 71.3638 67.9923C71.3638 65.461 69.35 64.5554 65.975 63.0788L64.1244 62.2857C58.7806 60.0104 55.2369 57.1613 55.2369 51.1369C55.2369 45.5879 59.4556 41.3607 66.0735 41.3607C68.2157 41.206 70.3562 41.6855 72.2278 42.7393C74.0993 43.7931 75.6192 45.3746 76.5978 47.2866L70.8125 50.9851C70.4357 50.037 69.7796 49.2259 68.9312 48.6593C68.0828 48.0928 67.0823 47.7974 66.0622 47.8126C65.6172 47.768 65.1677 47.8167 64.7425 47.9554C64.3173 48.0941 63.9256 48.3199 63.5925 48.6184C63.2594 48.9169 62.9921 49.2814 62.8077 49.6889C62.6232 50.0964 62.5257 50.5378 62.5213 50.9851C62.5213 53.2041 63.8966 54.1041 67.0719 55.4851L68.9225 56.2782C75.2113 58.9754 78.7663 61.7232 78.7663 67.9023C78.7663 74.5651 73.5322 78.2157 66.5038 78.2157C63.7652 78.3902 61.0347 77.7684 58.6418 76.4255C56.2488 75.0825 54.2956 73.0757 53.0178 70.6473L59.0253 67.1485ZM32.8831 67.7898C34.0447 69.8513 35.1022 71.5951 37.6447 71.5951C40.0747 71.5951 41.6103 70.6444 41.6103 66.946V41.7826H49.01V67.0444C49.01 74.7057 44.51 78.1932 37.9597 78.1932C35.6443 78.3198 33.3448 77.7427 31.3635 76.538C29.3822 75.3332 27.8118 73.5571 26.8588 71.4432L32.8831 67.7898Z" fill="black"/>
</svg>
